<?xml version="1.0" encoding="utf-8"?>
<!-- Generator: Adobe Illustrator 16.0.3, SVG Export Plug-In . SVG Version: 6.00 Build 0)  -->
<!DOCTYPE svg PUBLIC "-//W3C//DTD SVG 1.1//EN" "http://www.w3.org/Graphics/SVG/1.1/DTD/svg11.dtd" [
	<!ENTITY st0 "fill:#BDBEC0;">
	<!ENTITY st1 "fill:#F7931A;">
	<!ENTITY st2 "opacity:0.2;fill:#FFFFFF;">
	<!ENTITY st3 "fill:#C9CACC;">
	<!ENTITY st4 "fill:#FFFFFF;">
	<!ENTITY st5 "fill:#404042;">
]>
<svg version="1.1" xmlns="http://www.w3.org/2000/svg" xmlns:xlink="http://www.w3.org/1999/xlink" x="0px" y="0px" width="2192px"
	 height="867px" viewBox="0 0 2192 867" style="enable-background:new 0 0 2192 867;" xml:space="preserve">
<g id="图层_3">
	<path style="&st3;" d="M10,182.604c406.619,266.979,1421.935,455.986,2167.464,0c1.532-110.997,1.532-110.997,1.532-110.997
		S2161.016,2.61,2060.52,16.11c-115.494,1.5-1981.464-1.75-1981.464-1.75S20,31.109,10,82.106C10,182.604,10,82.106,10,182.604z"/>
</g>
<g id="图层_4">
	<path style="&st0;" d="M10,183c0,597,0,597,0,597s19.642,62.567,57.14,67.067s2056.397,0,2056.397,0s39.455-8.999,53.959-52.497
		c3.038-49.498,1.402-5.584-0.032-611.966C1574.564,562.077,537.83,526.887,10,183z"/>
</g>
<g id="图层_2">
	<path style="&st5;" d="M855,258c-28-24-78,14-78,14l14-93h-68c0,0,0,0-44,286c8-9,167,44,217-49C944,330,881,259,855,258z M839,370
		c-12,46-51,45-51,45s-29.5,0-31-2c0.355-6.869,11-76,11-76c21-33,46-24,49-24S851,324,839,370z"/>
	<polygon style="&st5;" points="977.5,256 945.5,468 1016,468 1047,256 	"/>
	<path style="&st5;" d="M987,206c-0.5-39.5,64-47.5,64,0C1050.5,249.5,987.5,245.5,987,206z"/>
	<path style="&st5;" d="M1072,307h39c0,0-20.5,107.5-15,111s-3,43.035,53.5,54.018C1176.5,472,1189,475,1220,455.5
		c3-40.5,3.5-62.5,3.5-62.5s-43.5,19-51,13s-6.5-12.826-5.5-16.413S1183.5,307,1183.5,307h39.5l12-51h-42l7.5-43H1130l-7,43h-41
		L1072,307z"/>
	<path style="&st5;" d="M1447,323.5c0,0-46.5-15.5-69.5-8c-22.5,4-38,20.5-44,31c-5,13-11,29,0,47.5s42,23.5,88,8.5
		c22.5-10,22.5-10,22.5-10l-10,69.5c0,0-41.5,17.348-80,10.174C1313,467.5,1304,458,1299.5,457c-8-5-40.5-34-43-83s27.5-84.5,53-103
		s77-22,87-20.5c14.5-0.5,58.5,7.5,58.5,7.5L1447,323.5z"/>
	<path style="&st5;" d="M1692,301.5c-7-13-33.5-48.619-89-51.31S1517.5,280,1503.5,293c0,0-31.5,41-29,82.5s32.5,77,59,87
		s82.5,26.5,137-25S1699,314.5,1692,301.5z M1633,362.051c-2,13.051-11.5,29.449-18,37.449s-27,19-50.5,8.5
		s-17.5-45.949-17.5-45.949c3-17.449,6.5-28.051,17.5-38.551c7-9,27-18.5,47-9.5S1635,349,1633,362.051z"/>
	<polygon style="&st5;" points="1768.5,256 1736.5,468 1807,468 1838,256 	"/>
	<path style="&st5;" d="M1778,206c-0.5-39.5,64-47.5,64,0C1841.5,249.5,1778.5,245.5,1778,206z"/>
	<path style="&st5;" d="M1899.75,256l-32.25,212h69.5l20-128c0,0,33.5-36,53.5-32.5c6.5,2.5,14,5.5,14,21.5c-2.5,17-19,139-19,139
		h69.5l21-145c0,0,3-48-24.5-63s-62-7.5-68.5-4s-40,27.5-40,27.5l5-27.5H1899.75z"/>
	<g>
		<path style="&st5;" d="M725.071,672.947l-22.285,46.103h-18.119l72.477-145.885h20.41l19.369,145.885H779.22l-5.623-46.103
			H725.071z M772.348,658.661l-5.623-42.207c-0.625-7.575-1.667-18.397-2.291-26.839h-0.625c-3.749,8.658-7.29,17.748-11.455,26.623
			l-20.827,42.423H772.348z"/>
		<path style="&st5;" d="M906.887,714.505c-7.914,3.679-20.619,6.926-36.447,6.926c-35.405,0-56.857-23.376-56.857-60.604
			c0-27.489,10.622-53.679,29.782-70.346c14.579-12.77,32.49-19.479,53.108-19.479c15.412,0,26.658,4.112,30.407,6.926
			l-5.623,14.502c-5.207-3.246-15.204-6.061-27.7-6.061c-14.579,0-29.366,5.845-40.196,16.45
			c-13.121,12.771-21.451,33.333-21.451,55.627c0,25.973,11.455,47.618,42.695,47.618c10.622,0,22.285-2.165,29.99-6.277
			L906.887,714.505z"/>
		<path style="&st5;" d="M1016.851,714.505c-7.914,3.679-20.619,6.926-36.447,6.926c-35.405,0-56.857-23.376-56.857-60.604
			c0-27.489,10.622-53.679,29.782-70.346c14.579-12.77,32.49-19.479,53.108-19.479c15.412,0,26.658,4.112,30.407,6.926
			l-5.623,14.502c-5.207-3.246-15.204-6.061-27.7-6.061c-14.579,0-29.366,5.845-40.195,16.45
			c-13.121,12.771-21.452,33.333-21.452,55.627c0,25.973,11.455,47.618,42.695,47.618c10.622,0,22.285-2.165,29.99-6.277
			L1016.851,714.505z"/>
		<path style="&st5;" d="M1116.19,650.437h-51.026l-9.58,53.246h57.482l-2.916,15.367h-74.768l26.658-145.885h71.644l-2.916,15.368
			h-54.149l-8.539,46.752h51.026L1116.19,650.437z"/>
		<path style="&st5;" d="M1159.714,575.33c7.914-1.732,18.952-3.03,30.407-3.03c13.537,0,26.449,3.463,34.364,11.255
			c6.664,6.277,10.205,14.719,10.205,26.189c0,16.234-7.706,30.087-16.87,37.879c-10.83,9.523-26.658,14.068-42.486,14.068
			c-5.415,0-9.997-0.433-14.37-1.082l-10.622,58.44h-17.078L1159.714,575.33z M1163.671,645.458
			c4.998,1.082,8.955,1.299,13.954,1.299c23.742,0,39.57-15.151,39.57-35.714c0-17.315-11.871-24.241-27.907-24.241
			c-6.873,0-12.08,0.649-15.204,1.515L1163.671,645.458z"/>
		<path style="&st5;" d="M1286.961,588.749h-41.029l2.916-15.584h99.552l-2.916,15.584h-41.236l-23.743,130.301h-17.286
			L1286.961,588.749z"/>
		<path style="&st5;" d="M1418.375,650.437h-51.025l-9.58,53.246h57.481l-2.915,15.367h-74.769l26.658-145.885h71.645l-2.916,15.368
			h-54.149l-8.539,46.752h51.025L1418.375,650.437z"/>
		<path style="&st5;" d="M1461.898,575.33c10.83-1.948,22.493-3.03,34.572-3.03c23.742,0,41.653,6.71,51.858,19.047
			c7.706,8.009,13.329,21.212,13.329,39.177c0,25.974-10.205,53.246-28.116,69.263c-16.244,14.069-36.654,20.346-63.729,20.346
			c-12.288,0-24.992-0.649-33.947-1.948L1461.898,575.33z M1455.65,704.115c6.248,0.865,12.912,1.082,18.119,1.082
			c22.285,0,38.529-6.71,50.192-19.264c12.704-13.42,19.161-33.982,19.161-54.761c0-25.324-12.08-44.155-46.86-44.155
			c-6.456,0-14.371,0.434-19.369,1.516L1455.65,704.115z"/>
	</g>
	<g>
		<path style="&st5;" d="M1675.14,575.709l-11.731,60.69h67.349l11.732-60.69h18.032l-27.809,144.033h-18.032l12.817-67.743h-67.131
			l-13.036,67.743H1629.3l27.809-144.033H1675.14z"/>
		<path style="&st5;" d="M1849.81,651.999h-53.227l-9.994,52.57h59.962l-3.041,15.173h-77.994l27.809-144.033h74.735l-3.042,15.173
			h-56.486l-8.907,46.159h53.228L1849.81,651.999z"/>
		<path style="&st5;" d="M1895.211,577.846c8.907-1.923,21.074-2.991,31.937-2.991c14.556,0,27.157,3.419,34.978,10.471
			c6.735,5.557,10.863,13.891,10.863,23.721c0,20.942-16.294,36.543-34.761,41.672l-0.218,0.427
			c10.429,3.419,15.208,14.104,16.295,28.85c1.521,20.088,2.606,33.979,4.562,39.748h-18.684c-0.869-2.992-2.39-18.164-3.476-34.833
			c-1.087-19.874-8.474-27.994-23.029-27.994h-16.077l-11.949,62.827h-18.031L1895.211,577.846z M1900.425,643.238h16.077
			c22.812,0,37.585-14.746,37.585-31.842c0-15.6-11.731-22.438-28.243-22.438c-7.169,0-11.731,0.642-15.208,1.496L1900.425,643.238z
			"/>
		<path style="&st5;" d="M2065.535,651.999h-53.227l-9.994,52.57h59.962l-3.041,15.173h-77.994l27.809-144.033h74.735l-3.042,15.173
			h-56.486l-8.907,46.159h53.228L2065.535,651.999z"/>
	</g>
</g>
<g id="图层_5">
	<g transform="translate(0.00630876,-0.00301984)">
		<path style="&st1;" d="M614.305,427.696c-1.57,147.503-123.64,268.407-272.649,270.031
			c-148.96,1.611-268.474-116.663-266.883-264.169c1.553-147.521,123.623-268.436,272.59-270.053
			C496.362,161.879,615.881,280.176,614.305,427.696z"/>
		<path style="&st4;" d="M451.38,364.027c-3.095-35.741-34.166-47.396-73.515-50.383l0.533-49.635l-30.521,0.338l-0.519,48.322
			c-8.011,0.085-16.216,0.333-24.368,0.582l0.525-48.643l-30.495,0.331l-0.545,49.619c-6.605,0.206-13.095,0.396-19.417,0.472
			l-0.003-0.154l-42.084,0.442l-0.34,32.268c0,0,22.533-0.672,22.157-0.257c12.358-0.131,16.312,6.926,17.417,13.045l-0.606,56.544
			c0.85-0.005,1.962,0.019,3.225,0.172c-1.018,0.015-2.106,0.017-3.224,0.042l-0.853,79.204
			c-0.591,3.855-2.938,10.022-11.574,10.131c0.387,0.336-22.181,0.24-22.181,0.24l-6.448,36.147l39.711-0.437
			c7.388-0.072,14.656-0.031,21.799-0.057l-0.524,50.196l30.481-0.323l0.531-49.672c8.361,0.079,16.464,0.057,24.373-0.04
			l-0.546,49.441l30.521-0.34l0.545-50.108c51.327-3.472,87.369-16.658,92.343-64.398c4.005-38.443-14.057-55.379-43.1-61.991
			C442.455,406.017,453.689,390.181,451.38,364.027L451.38,364.027z M407.546,471.816c-0.391,37.52-65.22,33.963-85.903,34.201
			l0.718-66.504C343.054,439.291,407.956,432.696,407.546,471.816z M394.357,378.144c-0.376,34.128-54.444,30.738-71.665,30.924
			l0.647-60.317C340.56,348.561,394.727,342.551,394.357,378.144z"/>
	</g>
</g>
<g id="图层_6">
	<ellipse style="&st2;" cx="344.303" cy="431.485" rx="273.523" ry="269.256"/>
	<g>
	</g>
	<g>
	</g>
	<g>
	</g>
	<g>
	</g>
	<g>
	</g>
	<g>
	</g>
	<g>
	</g>
	<g>
	</g>
	<g>
	</g>
	<g>
	</g>
	<g>
	</g>
	<g>
	</g>
	<g>
	</g>
	<g>
	</g>
	<g>
	</g>
</g>
</svg>
