<?xml version="1.0" encoding="utf-8"?>
<!-- Generator: Adobe Illustrator 16.0.3, SVG Export Plug-In . SVG Version: 6.00 Build 0)  -->
<!DOCTYPE svg PUBLIC "-//W3C//DTD SVG 1.1//EN" "http://www.w3.org/Graphics/SVG/1.1/DTD/svg11.dtd" [
	<!ENTITY st0 "fill:#841212;">
	<!ENTITY st1 "fill:#BC1E25;">
	<!ENTITY st2 "fill:#FAFAFA;">
	<!ENTITY st3 "fill:#FFFFFF;">
	<!ENTITY st4 "fill:#9A1C20;">
	<!ENTITY st5 "fill:#D18F91;">
]>
<svg version="1.1" xmlns="http://www.w3.org/2000/svg" xmlns:xlink="http://www.w3.org/1999/xlink" x="0px" y="0px" width="170px"
	 height="170px" viewBox="0 0 170 170" style="enable-background:new 0 0 170 170;" xml:space="preserve">
<g id="图层_2">
	<rect style="&st0;" width="170" height="170"/>
	<rect x="8" y="8" style="&st2;" width="153" height="153"/>
</g>
<g id="图层_3">
	<path style="&st5;" d="M11.111,11c0,0-0.25,70.75,0,74c73-3.5,146.628-15.285,146.628-15.285l0.402-58.709L11.111,11z"/>
	<path style="&st1;" d="M11,158h147c0,0,0,0-0.372-88.285C146.455,72.025,41.75,83.75,11,85C11,158,11,158,11,158z"/>
</g>
<g id="图层_5">
	<path style="&st3;" d="M129.25,85C126,85,122,85,122,85s0.75-20.5,0.75-44.5c-7.5-29.75-63.75-35.75-73.5-2
		c0,45.092,0.228,46.468,0.249,46.5H43c0,0-4.231,0.519-4.375,2.75s0,60.5,0,60.5s1.499,3.16,2.563,3.125s89.406-0.063,89.406-0.063
		S133,150.25,133,148s0-60,0-60S132.5,85,129.25,85z M107,84H64c0,0,0,0,0-40c20.25-31.5,41.5-6.25,43,0C107,84,107,84,107,84z"/>
</g>
<g id="图层_6">
	<path style="&st4;" d="M78,136h17l-3.25-19.5c0,0,10-11.75-5.25-16c-14,2.75-6,14.75-4.5,15.25C81.25,120.5,78,136,78,136z"/>
	<g>
	</g>
	<g>
	</g>
	<g>
	</g>
	<g>
	</g>
	<g>
	</g>
	<g>
	</g>
	<g>
	</g>
	<g>
	</g>
	<g>
	</g>
	<g>
	</g>
	<g>
	</g>
	<g>
	</g>
	<g>
	</g>
	<g>
	</g>
	<g>
	</g>
</g>
</svg>
